# xmcd CD database file
#
# Track frame offsets:
#	150
#	12842
#	27205
#	40775
#	61130
#	73377
#	82572
#	97275
#	109000
#	120567
#	135472
#	146805
#
# Disc length: 2123 seconds
#
# Revision: 3
# Processed by: cddbd v1.5.2PL0 Copyright (c) Steve Scherf et al.
# Submitted via: CDex 1.70beta2
#
DISCID=9d08490c
DTITLE=Nanci Griffith - Once In A Very Blue Moon
DYEAR=1984
DGENRE=Country
TTITLE0=Ghost In The Music
TTITLE1=Love Is A Hard Waltz
TTITLE2=Roseville Fair
TTITLE3=Mary and Omie
TTITLE4=Friend Out In The Madness
TTITLE5=Time Alone
TTITLE6=Ballad Of Robin Winter-Smith
TTITLE7=Daddy Said
TTITLE8=Once In A Very Blue Moon
TTITLE9=I'm Not Drivin' These Wheels (Bring The Prose To The Wheel)
TTITLE10=Year Down In New Orleans
TTITLE11=Spin On A Red Brick Floor
EXTD=YEAR: 1984
EXTT0=
EXTT1=
EXTT2=
EXTT3=
EXTT4=
EXTT5=
EXTT6=
EXTT7=
EXTT8=
EXTT9=
EXTT10=
EXTT11=
PLAYORDER=
